<svg viewBox="0 0 858.87 220.55" xmlns:xlink="http://www.w3.org/1999/xlink" xmlns="http://www.w3.org/2000/svg" data-name="Layer 2" id="Layer_2">
  <defs>
    <linearGradient gradientUnits="userSpaceOnUse" y2="110.28" x2="858.87" y1="110.28" x1="0" id="linear-gradient">
      <stop stop-color="#642a99" offset="0"></stop>
      <stop stop-color="#6b2b93" offset=".14"></stop>
      <stop stop-color="#6d2b94" offset=".29"></stop>
      <stop stop-color="#a62e69" offset=".43"></stop>
      <stop stop-color="#f7431c" offset=".57"></stop>
      <stop stop-color="#fc530a" offset=".69"></stop>
      <stop stop-color="#fc6506" offset=".73"></stop>
      <stop stop-color="#fc8002" offset=".78"></stop>
      <stop stop-color="#fd8b01" offset=".81"></stop>
      <stop stop-color="#fca102" offset="1"></stop>
    </linearGradient>
  </defs>
  <g data-name="Layer 1" id="Layer_1-2">
    <g>
      <g>
        <path fill="#231f20" d="m296.18,114.76c7.43-7.02,15.96-11.45,25.72-12.99,24.76-3.9,43.16,7.72,50.5,30.8,1.7,5.34,2.41,10.9,2.39,16.56-.06,18.72.01,37.44-.04,56.16-.02,6.83-3.4,12.08-9.22,13.8-5.88,1.74-13.26,1.37-18.07-4.79-2.66-3.41-3.15-7.47-3.2-11.57-.1-7.83-.02-15.66-.03-23.48,0-9.02-.05-18.04-.02-27.06.01-4.15-.85-8.09-2.56-11.84-4.37-9.57-15.91-11.37-23.61-4.92-4.34,3.64-6.75,8.44-6.74,14.26.02,17.02.07,34.03.02,51.05,0,2.53-.24,5.1-.72,7.58-1.48,7.8-8.57,12.71-16.45,11.58-9.8-1.41-14.32-6.53-14.33-16.39-.02-15.66.14-31.31-.1-46.97-.07-4.51-.71-9.2-2.11-13.47-2.68-8.19-9.38-11.67-15.7-11.38-5.4.25-9.39,2.49-12.1,7.11-2.86,4.88-3.39,10.3-3.39,15.75,0,11.74.3,23.47.31,35.21,0,5.78-.17,11.57-.57,17.33-.58,8.39-8.5,14.21-16.8,12.97-8.92-1.34-13.74-7.1-13.69-16.1.12-20.07-.27-40.2,1.09-60.19,1.14-16.78,8.84-30.66,24.91-38.19,18.21-8.53,41.6-3.76,54.5,9.17Z"></path>
        <path fill="#231f20" d="m33.49,167.4c.87,8.96,4.27,15.7,10.91,20.65,9.51,7.1,20.17,7.6,31.06,4.51,4.66-1.32,9.07-3.75,13.35-6.1,3.19-1.75,6.35-3.4,10.01-3.09,5.48.46,8.91,3.85,10.99,8.7,2.1,4.92,1.91,9.71-1.93,13.7-2.08,2.17-4.51,4.19-7.14,5.63-11.81,6.5-27.36,9.38-40.79,9.13-11.54-.21-22.5-2.7-32.38-9.07-13.06-8.41-21.34-20.29-25.2-35.17-1.61-6.21-2.61-12.62-2.31-19.14.88-19.74,8.37-36.22,24.3-48.3,10-7.59,21.44-11.31,34.06-11.8,13.13-.51,25.44,2.08,36.24,9.59,10.53,7.32,19.19,18.39,23.18,30.63,2.96,9.09,5.47,30.09-8.71,30.1-23.48.02-46.95.02-70.43.03-1.5,0-2.99,0-5.2,0Zm54.07-21.69c-2.37-12.88-14.28-24.11-27.62-23.07-11.85.93-24.01,12.49-24.08,23.07h51.69Z"></path>
        <path fill="#231f20" d="m470.53,204.21c-8.47,12.05-19.88,16.45-32.86,16.06-22.62-.69-38.74-12.06-47.11-32.92-8.19-20.39-6.8-40.73,5.15-59.49,9.77-15.34,24.09-23.95,42.38-25.81,13.82-1.41,26.68,1.04,38.34,8.79,12.11,8.05,19.16,19.49,21.94,33.59.81,4.13,1.06,8.42,1.09,12.65.11,15.99-.11,31.98.07,47.96.06,5.62-1.52,10.01-6.58,12.74-5.37,2.9-10.78,2.54-16.06-.22-3.39-1.77-5.22-4.78-5.92-8.47-.25-1.31-.25-2.67-.44-4.87Zm-1.55-44.4c.38-6.46-1.56-13.25-5.49-19.38-5.56-8.68-16.76-13.17-27.17-9.57-5.68,1.97-9.89,5.7-12.99,10.82-2.86,4.74-4.26,9.91-5.08,15.34-1.38,9.1.15,17.6,5.07,25.36,8.7,13.71,27.41,14.76,38,1.58,5.43-6.76,7.59-14.67,7.65-24.14Z"></path>
        <path fill="#231f20" d="m830.05,204.41c-3.37,3.19-5.98,6.08-9.02,8.43-5.35,4.14-11.54,6.42-18.35,6.69-6.96.28-13.86.34-20.67-1.78-9.03-2.82-16.62-7.8-22.74-14.82-11.7-13.41-16.01-29.45-14.45-46.83,1.63-18.09,9.68-33.09,24.67-43.81,8.12-5.8,17.21-9.02,27.28-10.21,11.2-1.32,21.58.67,31.58,5.35,13.46,6.31,22.4,16.74,27.27,30.71,2.02,5.8,3.07,11.76,3.03,17.95-.1,16.32-.58,32.67.19,48.96.46,9.68-8.88,15.93-17.77,14.24-6.49-1.24-10.27-5.62-10.72-12.33-.04-.65-.16-1.3-.32-2.55Zm-1.48-44.16c-.25-12.6-5.99-24.93-17.58-29.33-7.93-3.01-15.72-2.13-22.54,3.29-4.62,3.67-7.6,8.52-9.6,14.09-2.41,6.75-2.51,13.71-1.78,20.61.86,8.18,4.24,15.25,11.01,20.45,4.85,3.72,10.42,5.1,16.23,4.53,16.25-1.6,24.57-17.84,24.26-33.65Z"></path>
        <path fill="#231f20" d="m137.01,43.01c0-8.92-.09-17.39.03-25.86.1-7.05,4.14-13.89,11.6-16.27,11.04-3.52,21.76,4.01,21.94,15.6.09,5.95-.08,11.91.05,17.86.06,2.7-.59,4.75-2.62,6.76-5.13,5.08-8.11,11.15-7.76,18.67.31,6.89,2.24,13.09,7.27,17.87,2.49,2.36,3.1,4.86,3.09,8.09-.1,28.24-.1,56.47-.04,84.71,0,2.68.4,5.41,1,8.03,1.21,5.23,4.65,8.15,10.02,8.55,4.4.33,8.71.5,12.67-2.42,2.7-1.99,5.43-1.11,7.43,1.82,3.82,5.6,4.19,11.67,1.94,17.95-3.35,9.36-10.49,13.99-19.95,15.06-4.34.49-8.9.41-13.2-.35-14.94-2.63-24.23-11.99-29.51-25.82-2.88-7.56-3.85-15.48-3.88-23.45-.11-30.11-.02-60.22,0-90.32,0-1.33,0-2.67,0-4.39-5.24,0-10.13-.1-15.01.02-7.23.19-13.31-2.25-16.41-8.9-4.92-10.57.61-22.42,14.09-23.16,4.41-.24,8.84-.04,13.27-.04,1.33,0,2.66,0,3.99,0Z"></path>
        <path fill="#231f20" d="m615.52,176.94c0,9.01.03,18.02,0,27.04-.02,6.22-2.22,11.22-8.02,14.24-7.57,3.94-17.5,1.2-21.16-6.29-1.13-2.31-1.35-5.23-1.37-7.88-.11-17.5-.03-34.99-.08-52.49,0-2.19-.27-4.39-.6-6.56-1.66-11.07-12.39-16.9-22.85-14.9-6.74,1.29-11.96,4.94-14.32,11.63-.82,2.32-.97,4.97-.99,7.48-.12,16.49-.09,32.99-.17,49.48-.01,2.54-.32,5.08-.5,7.62-.45,6.58-4.24,10.74-10.19,12.57-6.44,1.98-12.46.81-17.2-4.5-2.42-2.71-3.11-6.08-3.12-9.47-.06-18.19-.13-36.39.16-54.58.12-7.81,1.4-15.49,4.81-22.75,4.48-9.51,11.47-16.38,20.92-20.66,13.96-6.33,28.51-7.66,43.22-3.33,15.72,4.63,24.92,15.97,29.23,31.29,1.49,5.3,1.87,11.01,2.09,16.56.33,8.49.09,17,.09,25.5h.05Z"></path>
        <path fill="#231f20" d="m631.15,175.84c0-8.67-.09-17.35.02-26.02.16-12.49,4.03-23.61,12.3-33.16,6.13-7.07,13.86-11.35,22.76-13.59,13.79-3.47,27.39-2.92,40.16,3.71,14.25,7.41,22.05,19.68,24.73,35.31.57,3.33.76,6.75.78,10.13.09,17.18.06,34.35.07,51.53,0,9.52-5.46,15.3-14.12,15.82-9.84.59-16.77-7.06-16.99-15.78-.2-8.16,0-16.33,0-24.49,0-10.2.04-20.41-.05-30.61-.08-8.87-4.14-14.48-11.43-17.5-8.83-3.66-19.16-.2-23.4,5.04-2.99,3.69-4.34,7.96-4.33,12.74.05,17.69.02,35.37.01,53.06,0,1.36.07,2.73-.04,4.08-.62,7.92-7.98,14.08-16.21,13.53-8.07-.54-14.19-6.13-14.32-14.22-.17-9.86-.04-19.73-.04-29.59h.09Z"></path>
        <path fill="#231f20" d="m207.25,60.1c-.58-8.62,7.23-16.4,16.42-16.39,9.15,0,16.78,7.7,16.58,16.85-.21,9.5-9.19,16.06-16.55,16.03-7.29-.03-17.13-6.39-16.45-16.5Z"></path>
        <path fill="#231f20" d="m201.51,59.81c.13,10.6-8.38,16.85-16.17,16.6-9.98-.32-16.64-6.77-16.52-17.41.1-8.91,7.08-15.67,16.16-15.59,9.89.1,16.63,7.41,16.53,16.4Z"></path>
      </g>
      <g>
        <path fill="url(#linear-gradient)" d="m296.18,114.76c7.43-7.02,15.96-11.45,25.72-12.99,24.76-3.9,43.16,7.72,50.5,30.8,1.7,5.34,2.41,10.9,2.39,16.56-.06,18.72.01,37.44-.04,56.16-.02,6.83-3.4,12.08-9.22,13.8-5.88,1.74-13.26,1.37-18.07-4.79-2.66-3.41-3.15-7.47-3.2-11.57-.1-7.83-.02-15.66-.03-23.48,0-9.02-.05-18.04-.02-27.06.01-4.15-.85-8.09-2.56-11.84-4.37-9.57-15.91-11.37-23.61-4.92-4.34,3.64-6.75,8.44-6.74,14.26.02,17.02.07,34.03.02,51.05,0,2.53-.24,5.1-.72,7.58-1.48,7.8-8.57,12.71-16.45,11.58-9.8-1.41-14.32-6.53-14.33-16.39-.02-15.66.14-31.31-.1-46.97-.07-4.51-.71-9.2-2.11-13.47-2.68-8.19-9.38-11.67-15.7-11.38-5.4.25-9.39,2.49-12.1,7.11-2.86,4.88-3.39,10.3-3.39,15.75,0,11.74.3,23.47.31,35.21,0,5.78-.17,11.57-.57,17.33-.58,8.39-8.5,14.21-16.8,12.97-8.92-1.34-13.74-7.1-13.69-16.1.12-20.07-.27-40.2,1.09-60.19,1.14-16.78,8.84-30.66,24.91-38.19,18.21-8.53,41.6-3.76,54.5,9.17Z"></path>
        <path fill="url(#linear-gradient)" d="m33.49,167.4c.87,8.96,4.27,15.7,10.91,20.65,9.51,7.1,20.17,7.6,31.06,4.51,4.66-1.32,9.07-3.75,13.35-6.1,3.19-1.75,6.35-3.4,10.01-3.09,5.48.46,8.91,3.85,10.99,8.7,2.1,4.92,1.91,9.71-1.93,13.7-2.08,2.17-4.51,4.19-7.14,5.63-11.81,6.5-27.36,9.38-40.79,9.13-11.54-.21-22.5-2.7-32.38-9.07-13.06-8.41-21.34-20.29-25.2-35.17-1.61-6.21-2.61-12.62-2.31-19.14.88-19.74,8.37-36.22,24.3-48.3,10-7.59,21.44-11.31,34.06-11.8,13.13-.51,25.44,2.08,36.24,9.59,10.53,7.32,19.19,18.39,23.18,30.63,2.96,9.09,5.47,30.09-8.71,30.1-23.48.02-46.95.02-70.43.03-1.5,0-2.99,0-5.2,0Zm54.07-21.69c-2.37-12.88-14.28-24.11-27.62-23.07-11.85.93-24.01,12.49-24.08,23.07h51.69Z"></path>
        <path fill="url(#linear-gradient)" d="m470.53,204.21c-8.47,12.05-19.88,16.45-32.86,16.06-22.62-.69-38.74-12.06-47.11-32.92-8.19-20.39-6.8-40.73,5.15-59.49,9.77-15.34,24.09-23.95,42.38-25.81,13.82-1.41,26.68,1.04,38.34,8.79,12.11,8.05,19.16,19.49,21.94,33.59.81,4.13,1.06,8.42,1.09,12.65.11,15.99-.11,31.98.07,47.96.06,5.62-1.52,10.01-6.58,12.74-5.37,2.9-10.78,2.54-16.06-.22-3.39-1.77-5.22-4.78-5.92-8.47-.25-1.31-.25-2.67-.44-4.87Zm-1.55-44.4c.38-6.46-1.56-13.25-5.49-19.38-5.56-8.68-16.76-13.17-27.17-9.57-5.68,1.97-9.89,5.7-12.99,10.82-2.86,4.74-4.26,9.91-5.08,15.34-1.38,9.1.15,17.6,5.07,25.36,8.7,13.71,27.41,14.76,38,1.58,5.43-6.76,7.59-14.67,7.65-24.14Z"></path>
        <path fill="url(#linear-gradient)" d="m830.05,204.41c-3.37,3.19-5.98,6.08-9.02,8.43-5.35,4.14-11.54,6.42-18.35,6.69-6.96.28-13.86.34-20.67-1.78-9.03-2.82-16.62-7.8-22.74-14.82-11.7-13.41-16.01-29.45-14.45-46.83,1.63-18.09,9.68-33.09,24.67-43.81,8.12-5.8,17.21-9.02,27.28-10.21,11.2-1.32,21.58.67,31.58,5.35,13.46,6.31,22.4,16.74,27.27,30.71,2.02,5.8,3.07,11.76,3.03,17.95-.1,16.32-.58,32.67.19,48.96.46,9.68-8.88,15.93-17.77,14.24-6.49-1.24-10.27-5.62-10.72-12.33-.04-.65-.16-1.3-.32-2.55Zm-1.48-44.16c-.25-12.6-5.99-24.93-17.58-29.33-7.93-3.01-15.72-2.13-22.54,3.29-4.62,3.67-7.6,8.52-9.6,14.09-2.41,6.75-2.51,13.71-1.78,20.61.86,8.18,4.24,15.25,11.01,20.45,4.85,3.72,10.42,5.1,16.23,4.53,16.25-1.6,24.57-17.84,24.26-33.65Z"></path>
        <path fill="url(#linear-gradient)" d="m137.01,43.01c0-8.92-.09-17.39.03-25.86.1-7.05,4.14-13.89,11.6-16.27,11.04-3.52,21.76,4.01,21.94,15.6.09,5.95-.08,11.91.05,17.86.06,2.7-.59,4.75-2.62,6.76-5.13,5.08-8.11,11.15-7.76,18.67.31,6.89,2.24,13.09,7.27,17.87,2.49,2.36,3.1,4.86,3.09,8.09-.1,28.24-.1,56.47-.04,84.71,0,2.68.4,5.41,1,8.03,1.21,5.23,4.65,8.15,10.02,8.55,4.4.33,8.71.5,12.67-2.42,2.7-1.99,5.43-1.11,7.43,1.82,3.82,5.6,4.19,11.67,1.94,17.95-3.35,9.36-10.49,13.99-19.95,15.06-4.34.49-8.9.41-13.2-.35-14.94-2.63-24.23-11.99-29.51-25.82-2.88-7.56-3.85-15.48-3.88-23.45-.11-30.11-.02-60.22,0-90.32,0-1.33,0-2.67,0-4.39-5.24,0-10.13-.1-15.01.02-7.23.19-13.31-2.25-16.41-8.9-4.92-10.57.61-22.42,14.09-23.16,4.41-.24,8.84-.04,13.27-.04,1.33,0,2.66,0,3.99,0Z"></path>
        <path fill="url(#linear-gradient)" d="m615.52,176.94c0,9.01.03,18.02,0,27.04-.02,6.22-2.22,11.22-8.02,14.24-7.57,3.94-17.5,1.2-21.16-6.29-1.13-2.31-1.35-5.23-1.37-7.88-.11-17.5-.03-34.99-.08-52.49,0-2.19-.27-4.39-.6-6.56-1.66-11.07-12.39-16.9-22.85-14.9-6.74,1.29-11.96,4.94-14.32,11.63-.82,2.32-.97,4.97-.99,7.48-.12,16.49-.09,32.99-.17,49.48-.01,2.54-.32,5.08-.5,7.62-.45,6.58-4.24,10.74-10.19,12.57-6.44,1.98-12.46.81-17.2-4.5-2.42-2.71-3.11-6.08-3.12-9.47-.06-18.19-.13-36.39.16-54.58.12-7.81,1.4-15.49,4.81-22.75,4.48-9.51,11.47-16.38,20.92-20.66,13.96-6.33,28.51-7.66,43.22-3.33,15.72,4.63,24.92,15.97,29.23,31.29,1.49,5.3,1.87,11.01,2.09,16.56.33,8.49.09,17,.09,25.5h.05Z"></path>
        <path fill="url(#linear-gradient)" d="m631.15,175.84c0-8.67-.09-17.35.02-26.02.16-12.49,4.03-23.61,12.3-33.16,6.13-7.07,13.86-11.35,22.76-13.59,13.79-3.47,27.39-2.92,40.16,3.71,14.25,7.41,22.05,19.68,24.73,35.31.57,3.33.76,6.75.78,10.13.09,17.18.06,34.35.07,51.53,0,9.52-5.46,15.3-14.12,15.82-9.84.59-16.77-7.06-16.99-15.78-.2-8.16,0-16.33,0-24.49,0-10.2.04-20.41-.05-30.61-.08-8.87-4.14-14.48-11.43-17.5-8.83-3.66-19.16-.2-23.4,5.04-2.99,3.69-4.34,7.96-4.33,12.74.05,17.69.02,35.37.01,53.06,0,1.36.07,2.73-.04,4.08-.62,7.92-7.98,14.08-16.21,13.53-8.07-.54-14.19-6.13-14.32-14.22-.17-9.86-.04-19.73-.04-29.59h.09Z"></path>
        <path fill="url(#linear-gradient)" d="m207.25,60.1c-.58-8.62,7.23-16.4,16.42-16.39,9.15,0,16.78,7.7,16.58,16.85-.21,9.5-9.19,16.06-16.55,16.03-7.29-.03-17.13-6.39-16.45-16.5Z"></path>
        <path fill="url(#linear-gradient)" d="m201.51,59.81c.13,10.6-8.38,16.85-16.17,16.6-9.98-.32-16.64-6.77-16.52-17.41.1-8.91,7.08-15.67,16.16-15.59,9.89.1,16.63,7.41,16.53,16.4Z"></path>
      </g>
    </g>
  </g>
</svg>