<svg width="330" height="203" viewBox="0 0 330 203" fill="none" xmlns="http://www.w3.org/2000/svg">
<g clip-path="url(#clip0_1_2)">
<mask id="mask0_1_2" style="mask-type:luminance" maskUnits="userSpaceOnUse" x="0" y="0" width="330" height="203">
<path d="M330 0H0V202.981H330V0Z" fill="white"/>
</mask>
<g mask="url(#mask0_1_2)">
<path opacity="0.1" d="M330 130.37C330.006 135.869 329.34 141.349 328.019 146.688C327.575 148.486 327.058 150.248 326.47 151.972C325.75 154.1 324.916 156.187 323.971 158.225C323.494 159.256 322.991 160.267 322.46 161.257C322.469 166.896 321.308 172.476 319.051 177.644C314.97 186.917 307.693 194.414 298.547 198.77C292.829 201.498 286.579 202.933 280.243 202.973H62.6451C52.9638 202.993 43.4496 200.45 35.0699 195.601L34.9411 195.528C33.7475 194.83 32.5838 194.09 31.45 193.309C28.8991 191.547 26.5024 189.571 24.2859 187.403C21.2858 184.471 18.6423 181.196 16.4101 177.644C11.1673 169.32 8.39001 159.68 8.39974 149.842C3.09036 140.526 -0.00561523 129.367 -0.00561523 117.375C-0.00561523 102.246 4.91432 88.444 12.9975 77.9961C14.6827 75.8133 16.5286 73.7595 18.5198 71.8518C20.4845 69.964 22.5962 68.2355 24.835 66.6825C26.6262 65.4387 28.4982 64.3155 30.4386 63.3204C31.2483 62.9085 32.0608 62.519 32.8874 62.1576C33.613 61.8354 34.3471 61.5356 35.0896 61.2526C35.9805 60.9146 36.8827 60.6036 37.7961 60.3196C38.7095 60.0357 39.6107 59.7873 40.4998 59.5744C41.8073 59.255 43.1372 58.9953 44.4896 58.7955C45.6103 58.6302 46.731 58.5153 47.8517 58.4284C48.7427 58.3612 49.642 58.3248 50.547 58.3136H51.0373C52.0348 58.3136 53.0266 58.3528 54.01 58.42C54.1137 58.2127 54.2258 58.0026 54.3294 57.798C54.7217 57.05 55.1279 56.3047 55.537 55.5762C55.5361 55.5697 55.5361 55.5631 55.537 55.5566C55.607 55.4277 55.6771 55.3017 55.7499 55.1784C56.0805 54.5816 56.4252 53.9904 56.7782 53.4048C56.9407 53.1247 57.1004 52.8613 57.2657 52.5979C57.3007 52.5325 57.339 52.4689 57.3806 52.4074C57.5487 52.1272 57.7196 51.847 57.8933 51.5669C58.7581 50.1847 59.6575 48.8267 60.5914 47.4931L60.8296 47.1512C60.9753 46.9439 61.1097 46.7422 61.2723 46.5349C61.6589 45.9941 62.0568 45.4506 62.4574 44.9182C62.7376 44.5372 63.0178 44.1589 63.3204 43.7975C64.0488 42.8636 64.796 41.9297 65.5618 40.9957C66.3276 40.0618 67.1233 39.14 67.9489 38.2304C68.061 38.1043 68.1731 37.981 68.2907 37.8577L69.4871 36.5521C69.5459 36.4905 69.5964 36.4344 69.6524 36.3784C69.7953 36.2243 69.9326 36.0702 70.0867 35.9217C70.7283 35.2409 71.3867 34.574 72.0479 33.91C75.413 30.5584 78.9979 27.4349 82.7788 24.5604C82.9273 24.4428 83.0786 24.3307 83.2271 24.2186C83.9387 23.6835 84.6616 23.154 85.3844 22.6328C89.3605 19.7805 93.5167 17.1881 97.8272 14.8719C98.1241 14.701 98.4267 14.5413 98.7321 14.3844C102.597 12.3399 106.571 10.5104 110.637 8.90407C112.853 8.02711 115.12 7.20338 117.4 6.4497C118.919 5.95099 120.443 5.47748 121.987 5.032C124.4 4.33716 126.83 3.71423 129.277 3.16321C136.486 1.5457 143.82 0.546499 151.198 0.176504C153.44 0.0625646 155.706 0.00372782 157.998 -7.89699e-06C169.057 -0.0146483 180.073 1.37877 190.779 4.14663C190.89 4.31393 191.041 4.45031 191.219 4.54294C191.397 4.63558 191.596 4.68143 191.796 4.67617H192.738C193.147 4.78824 193.553 4.90032 193.962 5.01799C196.246 5.67548 198.498 6.39367 200.717 7.17256L201.278 7.37429C206.754 9.3218 212.083 11.6627 217.222 14.3788C221.855 16.8212 226.316 19.5771 230.573 22.6272C231.229 23.0979 231.875 23.5724 232.512 24.0505C233.285 23.5555 234.071 23.0811 234.871 22.6272C237.958 20.8689 241.237 19.471 244.644 18.461C251.765 16.3535 259.3 16.0588 266.565 17.6036C275.881 19.5789 284.314 24.482 291.125 31.4556C293.899 34.3089 296.367 37.4433 298.491 40.808C298.645 41.049 298.799 41.2927 298.948 41.5393C300.773 44.5173 302.342 47.6451 303.638 50.8888C303.686 51.0093 303.733 51.1214 303.775 51.2391C304.971 54.2765 305.936 57.4001 306.661 60.583C306.695 60.7455 306.734 60.9052 306.768 61.0677C307.446 64.1481 307.906 67.2723 308.146 70.4173C308.146 70.5294 308.146 70.6442 308.168 70.7619C308.286 72.3888 308.346 74.0325 308.348 75.6931C308.348 77.178 308.297 78.6517 308.205 80.1143C308.205 80.274 308.182 80.4393 308.168 80.6046C308.143 81.0277 308.107 81.4451 308.07 81.871C310.21 83.597 312.213 85.4864 314.061 87.5222C314.877 88.4132 315.667 89.3378 316.431 90.296C318.758 93.2124 320.803 96.3429 322.539 99.6455C327.277 108.589 330 119.11 330 130.37Z" fill="#D9D9D9"/>
<path opacity="0.1" d="M298.34 197.733C298.34 199.647 291.747 201.44 280.243 202.981H62.6452C52.9638 203.002 43.4496 200.458 35.07 195.61L34.9411 195.537C38.2472 194.332 44.215 193.208 52.3374 192.194L52.7016 192.149C56.3439 191.704 60.4149 191.281 64.8642 190.88C64.9763 190.88 65.0911 190.863 65.2032 190.849C68.7334 190.535 72.4888 190.241 76.4692 189.967C76.5953 189.967 76.7185 189.944 76.8446 189.939C78.38 189.829 79.9471 189.724 81.546 189.625L82.1624 189.586C93.8038 188.863 107.037 188.286 121.387 187.905H121.404C123.414 187.849 125.445 187.799 127.498 187.756C129.781 187.702 132.091 187.654 134.43 187.613C136.214 187.574 138.022 187.546 139.834 187.518H139.876C148.055 187.395 156.505 187.333 165.146 187.333C186.512 187.333 206.707 187.723 224.602 188.423H224.653C227.404 188.529 230.105 188.647 232.739 188.768L234.98 188.874C237.952 189.016 240.847 189.168 243.666 189.331C276.811 191.216 298.34 194.279 298.34 197.733Z" fill="#36485E"/>
<g opacity="0.2">
<path d="M190.6 186.047C190.591 186.349 190.556 186.65 190.496 186.946C188.546 186.636 186.585 186.356 184.612 186.106C184.612 186.027 184.612 185.946 184.612 185.865C184.631 185.025 184.873 184.205 185.313 183.489C185.89 182.576 186.767 182.004 187.734 182.035C188.7 182.066 189.538 182.69 190.056 183.635C190.448 184.376 190.636 185.209 190.6 186.047Z" fill="#3F3D56"/>
<path d="M190.761 181.259C190.829 179.092 189.543 177.294 187.888 177.241C186.234 177.189 184.836 178.903 184.768 181.07C184.7 183.237 185.986 185.036 187.64 185.088C189.295 185.14 190.692 183.426 190.761 181.259Z" fill="#3F3D56"/>
<path d="M190.914 176.462C190.982 174.296 189.696 172.497 188.041 172.444C186.386 172.392 184.989 174.106 184.921 176.273C184.852 178.44 186.138 180.239 187.793 180.291C189.448 180.343 190.845 178.629 190.914 176.462Z" fill="#3F3D56"/>
<path d="M191.064 171.666C191.132 169.499 189.846 167.7 188.191 167.648C186.536 167.595 185.139 169.31 185.071 171.476C185.002 173.643 186.289 175.442 187.943 175.494C189.598 175.547 190.995 173.833 191.064 171.666Z" fill="#3F3D56"/>
<path d="M191.214 166.869C191.282 164.702 189.996 162.903 188.341 162.851C186.687 162.799 185.29 164.513 185.221 166.68C185.153 168.846 186.439 170.645 188.093 170.698C189.748 170.75 191.145 169.036 191.214 166.869Z" fill="#3F3D56"/>
<path d="M178.02 133.586C177.625 133.052 177.27 132.49 176.955 131.905L184.873 130.86L176.35 130.656C175.589 128.852 175.205 126.911 175.22 124.954C175.235 122.996 175.649 121.062 176.437 119.269L187.678 125.559L177.381 117.479C178.42 115.799 179.794 114.351 181.417 113.226C183.04 112.101 184.878 111.322 186.816 110.94C188.754 110.557 190.75 110.577 192.679 111C194.608 111.424 196.43 112.24 198.029 113.398C199.629 114.557 200.973 116.033 201.976 117.734C202.98 119.436 203.622 121.325 203.862 123.286C204.103 125.246 203.936 127.235 203.373 129.129C202.811 131.022 201.863 132.779 200.591 134.29C201.205 135.121 201.726 136.016 202.146 136.96L191.754 141.947L202.774 138.632C203.468 140.922 203.579 143.349 203.099 145.693C202.619 148.037 201.561 150.224 200.022 152.056C201.622 154.226 202.579 156.803 202.783 159.492C202.987 162.181 202.431 164.873 201.177 167.26C199.923 169.648 198.023 171.634 195.693 172.992C193.364 174.35 190.699 175.025 188.004 174.94C185.309 174.856 182.692 174.014 180.453 172.512C178.213 171.009 176.442 168.907 175.341 166.446C174.24 163.984 173.854 161.262 174.227 158.592C174.601 155.921 175.718 153.41 177.451 151.344C175.54 148.75 174.556 145.589 174.657 142.368C174.759 139.148 175.94 136.055 178.011 133.586H178.02Z" fill="#36485E"/>
<path opacity="0.1" d="M203.384 143.275C203.286 146.497 202.101 149.592 200.022 152.056C201.622 154.226 202.579 156.803 202.783 159.492C202.987 162.181 202.431 164.873 201.177 167.26C199.923 169.648 198.023 171.634 195.693 172.992C193.364 174.35 190.699 175.025 188.004 174.94C185.309 174.856 182.692 174.014 180.453 172.512C178.213 171.009 176.442 168.907 175.341 166.446C174.24 163.984 173.854 161.262 174.227 158.592C174.601 155.921 175.718 153.41 177.451 151.344C175.61 148.842 203.435 141.664 203.384 143.275Z" fill="black"/>
</g>
<g opacity="0.2">
<path d="M148.013 186.047C148.004 186.349 147.969 186.65 147.909 186.946C145.959 186.636 143.998 186.356 142.025 186.106C142.025 186.027 142.025 185.946 142.025 185.865C142.044 185.025 142.285 184.205 142.726 183.489C143.303 182.576 144.18 182.004 145.147 182.035C146.113 182.066 146.951 182.69 147.469 183.635C147.861 184.376 148.049 185.209 148.013 186.047Z" fill="#3F3D56"/>
<path d="M148.171 181.26C148.239 179.094 146.953 177.295 145.298 177.242C143.643 177.19 142.246 178.904 142.178 181.071C142.109 183.238 143.395 185.037 145.05 185.089C146.705 185.141 148.102 183.427 148.171 181.26Z" fill="#3F3D56"/>
<path d="M148.323 176.464C148.392 174.297 147.106 172.498 145.451 172.446C143.796 172.393 142.399 174.107 142.331 176.274C142.262 178.441 143.548 180.24 145.203 180.292C146.858 180.345 148.255 178.63 148.323 176.464Z" fill="#3F3D56"/>
<path d="M148.474 171.667C148.542 169.5 147.256 167.701 145.601 167.649C143.946 167.597 142.549 169.311 142.481 171.477C142.412 173.644 143.698 175.443 145.353 175.496C147.008 175.548 148.405 173.834 148.474 171.667Z" fill="#3F3D56"/>
<path d="M148.624 166.87C148.692 164.703 147.406 162.904 145.751 162.852C144.096 162.8 142.699 164.514 142.631 166.681C142.562 168.847 143.848 170.646 145.503 170.699C147.158 170.751 148.555 169.037 148.624 166.87Z" fill="#3F3D56"/>
<path d="M135.433 133.586C135.038 133.052 134.682 132.49 134.368 131.905L142.286 130.86L133.763 130.656C133.002 128.852 132.618 126.911 132.633 124.954C132.648 122.996 133.062 121.062 133.85 119.269L145.091 125.559L134.794 117.479C135.833 115.799 137.207 114.351 138.83 113.226C140.453 112.101 142.291 111.322 144.229 110.94C146.167 110.557 148.163 110.577 150.092 111C152.021 111.424 153.843 112.24 155.442 113.398C157.042 114.557 158.385 116.033 159.389 117.734C160.393 119.436 161.035 121.325 161.275 123.286C161.516 125.246 161.349 127.235 160.786 129.129C160.223 131.022 159.276 132.779 158.004 134.29C158.618 135.121 159.139 136.016 159.559 136.96L149.167 141.947L160.187 138.632C160.881 140.922 160.992 143.349 160.512 145.693C160.031 148.037 158.974 150.224 157.435 152.056C159.035 154.226 159.992 156.803 160.196 159.492C160.4 162.181 159.843 164.873 158.59 167.26C157.336 169.648 155.436 171.634 153.106 172.992C150.777 174.35 148.112 175.025 145.417 174.94C142.722 174.856 140.105 174.014 137.865 172.512C135.626 171.009 133.855 168.907 132.754 166.446C131.653 163.984 131.267 161.262 131.64 158.592C132.013 155.921 133.131 153.41 134.864 151.344C132.953 148.75 131.969 145.589 132.07 142.368C132.172 139.148 133.353 136.055 135.424 133.586H135.433Z" fill="#36485E"/>
<path opacity="0.1" d="M160.797 143.275C160.699 146.497 159.514 149.592 157.435 152.056C159.035 154.226 159.992 156.803 160.196 159.492C160.4 162.181 159.843 164.873 158.59 167.26C157.336 169.648 155.436 171.634 153.106 172.992C150.777 174.35 148.112 175.025 145.417 174.94C142.722 174.856 140.105 174.014 137.865 172.512C135.626 171.009 133.855 168.907 132.754 166.446C131.653 163.984 131.267 161.262 131.64 158.592C132.013 155.921 133.131 153.41 134.864 151.344C133.023 148.842 160.848 141.664 160.797 143.275Z" fill="black"/>
</g>
<g opacity="0.2">
<path d="M264.343 189.112C264.322 189.685 264.253 190.254 264.138 190.816C260.384 190.216 256.603 189.68 252.794 189.207C252.794 189.056 252.794 188.902 252.794 188.745C252.83 187.127 253.296 185.548 254.144 184.17C255.265 182.413 256.946 181.312 258.804 181.368C260.661 181.424 262.278 182.632 263.287 184.45C264.047 185.882 264.412 187.492 264.343 189.112Z" fill="#3F3D56"/>
<path d="M264.648 179.888C264.78 175.715 262.303 172.251 259.115 172.15C255.927 172.049 253.236 175.35 253.105 179.523C252.973 183.696 255.45 187.16 258.637 187.261C261.825 187.362 264.516 184.06 264.648 179.888Z" fill="#3F3D56"/>
<path d="M264.939 170.653C265.071 166.48 262.594 163.016 259.406 162.915C256.219 162.814 253.528 166.115 253.396 170.288C253.264 174.461 255.741 177.925 258.929 178.026C262.116 178.127 264.807 174.826 264.939 170.653Z" fill="#3F3D56"/>
<path d="M265.233 161.418C265.365 157.245 262.888 153.781 259.7 153.68C256.513 153.58 253.822 156.881 253.69 161.053C253.558 165.226 256.035 168.69 259.223 168.791C262.41 168.892 265.101 165.591 265.233 161.418Z" fill="#3F3D56"/>
<path d="M265.196 151.763C265.321 147.588 262.837 144.126 259.648 144.031C256.459 143.935 253.772 147.242 253.647 151.417C253.521 155.591 256.005 159.053 259.194 159.149C262.384 159.245 265.07 155.938 265.196 151.763Z" fill="#3F3D56"/>
<path d="M240.122 88.119C239.365 87.0904 238.681 86.0111 238.073 84.8885L253.315 82.8768L236.911 82.4818C235.445 79.0089 234.704 75.2737 234.732 71.5044C234.76 67.7352 235.557 64.0113 237.073 60.5606L258.717 72.6671L238.897 57.1116C240.901 53.8851 243.548 51.1059 246.673 48.9472C249.799 46.7885 253.335 45.2966 257.062 44.5645C260.789 43.8324 264.627 43.8758 268.336 44.6919C272.046 45.508 275.547 47.0794 278.623 49.3082C281.699 51.5369 284.282 54.3752 286.213 57.6462C288.144 60.9172 289.38 64.5508 289.845 68.3205C290.309 72.0902 289.993 75.9152 288.914 79.5572C287.836 83.1991 286.019 86.58 283.577 89.4891C284.758 91.0901 285.762 92.8138 286.572 94.6303L266.565 104.238L287.777 97.8496C289.114 102.252 289.332 106.919 288.41 111.427C287.489 115.935 285.458 120.143 282.501 123.668C285.581 127.847 287.422 132.808 287.815 137.984C288.207 143.16 287.135 148.342 284.722 152.938C282.308 157.533 278.65 161.357 274.165 163.971C269.681 166.585 264.551 167.885 259.363 167.722C254.175 167.558 249.137 165.938 244.826 163.046C240.515 160.154 237.105 156.108 234.986 151.369C232.866 146.631 232.123 141.392 232.841 136.251C233.559 131.11 235.709 126.275 239.046 122.298C235.368 117.304 233.475 111.22 233.67 105.021C233.865 98.8222 236.137 92.8688 240.122 88.1162V88.119Z" fill="#36485E"/>
<path opacity="0.1" d="M288.957 106.768C288.773 112.968 286.502 118.924 282.513 123.674C285.592 127.852 287.433 132.814 287.826 137.99C288.218 143.166 287.147 148.348 284.733 152.943C282.319 157.539 278.661 161.362 274.176 163.977C269.692 166.591 264.562 167.891 259.374 167.727C254.186 167.564 249.148 165.943 244.838 163.052C240.527 160.16 237.117 156.114 234.997 151.375C232.878 146.637 232.134 141.397 232.852 136.256C233.57 131.115 235.72 126.28 239.057 122.304C235.487 117.482 289.055 103.666 288.957 106.768Z" fill="black"/>
</g>
<path d="M44.2178 189.605L47.1568 189.597H51.3007L56.54 104.484L108.426 17.9006L106.171 15.4799V9.34955L50.0567 102.478L44.2178 189.605Z" fill="#487EB0"/>
<path opacity="0.1" d="M47.4706 189.597H51.3007L56.54 104.484L108.426 17.9006L106.171 15.4799L52.6511 103.187L47.4706 189.597Z" fill="black"/>
<path d="M35.5575 190.314L170.001 200.602L170.116 200.611L300.228 192.609L300.326 192.603V187.109L156.959 184.478L37.3478 184.363H36.4737L36.3784 184.98L35.5575 190.314Z" fill="#487EB0"/>
<path opacity="0.1" d="M35.5575 190.314L170.001 200.602L170.116 200.611L300.228 192.609L300.326 192.502V187.224H300.211L170.001 191.572L37.3478 184.363H37.3282L37.0929 184.517L36.3784 184.98L35.5575 190.314Z" fill="black"/>
<path opacity="0.1" d="M35.5575 190.314L170.001 200.602V191.572L37.0929 184.517L36.3784 184.98L35.5575 190.314Z" fill="black"/>
<path d="M106.154 15.365L165.426 78.9824L163.594 190.886L168.628 191.494L168.712 191.505H173.747L174.35 83.7874L285.337 120.861L287.208 186.871L291.26 187.325L292.633 187.479L289.455 116.283L173.433 75.5502L109.816 9.414H106.154V15.365Z" fill="#487EB0"/>
<path opacity="0.1" d="M173.893 81.7281L174.35 83.7874L285.337 120.861L287.208 186.871L291.26 187.325L288.082 119.488L173.893 81.7281Z" fill="black"/>
<path opacity="0.1" d="M106.154 15.365L165.426 78.9824L163.594 190.886L168.628 191.494L170.001 75.3204L106.154 9.414V15.365Z" fill="black"/>
<path d="M174.109 126.638L214.816 134.654L214.83 134.657L286.127 148.702L289.391 147.394L289.38 147.164L289.167 142.611L174.151 119.37L174.109 126.638Z" fill="#487EB0"/>
<path opacity="0.1" d="M214.83 134.657L286.127 148.702L289.391 147.394L289.38 147.164L214.83 134.657Z" fill="black"/>
<path d="M217.556 98.2194L218.657 158.833L219.226 189.93L224.238 189.762L227.393 189.656L226.412 99.0964L224.238 98.3735L223.762 98.2194H217.556Z" fill="#487EB0"/>
<path opacity="0.1" d="M217.601 98.2054V98.2194L218.657 158.833L219.226 189.93L224.238 189.762V98.2054H217.601Z" fill="black"/>
<path d="M139.041 113.699C139.336 113.859 139.617 114.042 139.882 114.246C140.196 114.52 140.478 114.83 140.723 115.167C141.924 116.722 143.034 118.53 142.916 120.491C142.919 120.776 142.865 121.059 142.758 121.324C142.65 121.588 142.492 121.829 142.292 122.032C141.796 122.455 141.084 122.475 140.434 122.475C139.728 122.475 138.985 122.475 138.375 122.11C137.764 121.746 137.254 121.037 136.531 121.054C136.429 121.071 136.325 121.071 136.223 121.054C135.974 120.973 135.923 120.645 135.761 120.438C135.48 120.065 134.889 120.157 134.449 120.32C134.009 120.482 133.522 120.726 133.088 120.538C132.836 120.405 132.629 120.199 132.496 119.947C131.457 118.266 131.236 116.246 131.04 114.293C130.919 113.105 130 109.054 132.536 109.976C133.656 110.379 134.704 111.186 135.724 111.777L139.041 113.699Z" fill="#F4E5D5"/>
<path d="M136.537 114.1C136.763 114.263 137.038 114.345 137.316 114.334C137.595 114.323 137.862 114.219 138.075 114.038C138.492 113.661 138.758 113.146 138.823 112.587C139.103 112.5 139.246 112.867 139.425 113.091C139.739 113.472 140.378 113.467 140.664 113.873C140.863 114.153 140.818 114.543 140.958 114.859C141.14 115.268 141.591 115.481 141.899 115.812C142.19 116.173 142.4 116.592 142.516 117.042L142.975 118.42C143.195 118.994 143.336 119.594 143.395 120.205C143.424 120.511 143.392 120.819 143.301 121.112C143.209 121.405 143.061 121.677 142.863 121.911C142.247 122.575 141.235 122.645 140.341 122.626C140.043 122.632 139.745 122.597 139.456 122.522C138.663 122.276 138.156 121.477 137.946 120.673C137.736 119.869 137.758 119.025 137.635 118.202C137.502 117.393 137.266 116.604 136.935 115.854C136.688 115.271 136.01 114.403 136.021 113.783C136.223 113.783 136.369 113.968 136.537 114.1Z" fill="#F4E5D5"/>
<path d="M137.542 111.262C137.411 110.864 137.335 110.45 137.316 110.032C137.316 109.191 137.699 108.401 138.086 107.65L134.884 108.085C134.497 108.138 134.065 108.216 133.847 108.538C133.764 108.698 133.721 108.875 133.721 109.055C133.721 109.235 133.764 109.413 133.847 109.572C134.007 109.892 134.135 110.227 134.228 110.572C134.235 110.875 134.27 111.176 134.332 111.472C134.431 111.689 134.571 111.886 134.743 112.052C135.66 113.066 136.346 114.262 137.03 115.448C137.01 115.414 138.96 113.904 138.882 113.411C138.837 113.131 138.274 112.794 138.094 112.525C137.847 112.135 137.661 111.709 137.542 111.262Z" fill="#BE6F72"/>
<path d="M165 100.315V103.075L117.742 112.293L115.291 113.778H106.832V112.223L153.263 101.004L165 100.315Z" fill="#36485E"/>
<path opacity="0.1" d="M165 103.075L117.742 112.293L115.291 113.778H106.832L153.608 103.767L165 103.075Z" fill="black"/>
<path d="M127.058 178.659C126.532 178.021 125.805 177.58 124.996 177.408C124.187 177.236 123.344 177.343 122.603 177.712C122.445 177.786 122.305 177.895 122.194 178.031C121.914 178.423 122.093 178.964 122.119 179.449C122.183 180.631 121.242 181.592 120.396 182.419C119.942 182.861 119.479 183.335 119.275 183.937C119.07 184.54 119.222 185.305 119.771 185.618C120.01 185.738 120.271 185.811 120.538 185.831C121.434 186.006 122.352 186.032 123.256 185.907C124.15 185.736 125.027 185.229 125.414 184.405C125.488 184.182 125.612 183.978 125.775 183.808C126.268 183.419 127.025 183.876 127.585 183.598C128.047 183.369 128.067 183.007 128.072 182.531C128.089 181.214 127.893 179.723 127.058 178.659Z" fill="#36485E"/>
<path d="M133.783 178.608C134.127 179.516 134.175 180.505 134.22 181.474C134.245 182.035 134.262 182.634 133.959 183.108C133.656 183.581 133.065 183.831 132.499 183.948C131.331 184.189 129.978 183.962 129.224 183.035C128.647 182.326 128.526 181.354 128.633 180.435C128.722 179.681 128.913 178.799 128.372 178.264C128.232 178.121 128.05 178.02 127.921 177.866C127.641 177.524 127.686 177.008 127.837 176.588C128.034 176.186 128.182 175.762 128.277 175.325C128.299 175.117 132.071 175.47 132.418 175.641C132.892 175.874 132.819 176.263 132.962 176.734C133.161 177.389 133.542 177.981 133.783 178.608Z" fill="#36485E"/>
<path d="M134.475 138.358C135.214 138.837 135.5 139.778 135.615 140.652C135.931 143.048 135.377 145.469 135.335 147.887C135.295 151.274 136.276 154.723 135.438 158.004C134.937 159.965 135.363 162.207 134.892 164.187C134.752 164.776 134.494 165.331 134.36 165.919C134.079 167.194 134.374 168.527 134.769 169.774C134.895 170.11 134.975 170.462 135.007 170.819C134.988 171.37 134.848 171.909 134.598 172.4L132.917 176.375C132.729 176.821 131.989 176.894 131.516 176.952C130.625 177.059 129.63 177.135 128.921 176.583C128.213 176.031 128.042 175.106 127.932 174.243C127.723 172.586 127.629 170.917 127.652 169.248C127.683 168.812 127.644 168.374 127.537 167.95C127.383 167.471 127.044 167.057 126.952 166.549C126.834 165.894 127.167 165.249 127.291 164.588C127.375 163.984 127.366 163.371 127.263 162.77C127.153 161.873 127.027 160.977 126.885 160.086C126.683 158.839 126.971 157.609 127.165 156.359C127.347 155.185 127.114 153.989 126.885 152.823C126.904 153.769 126.786 154.713 126.534 155.625C126.386 156.071 126.173 156.497 126.044 156.95C125.47 158.987 126.694 161.125 126.52 163.235C126.439 164.221 126.052 165.196 126.162 166.168C126.237 166.88 126.568 167.533 126.795 168.211C127.022 168.889 127.139 169.665 126.795 170.298C125.884 172.018 126.565 174.358 127.38 176.123C127.546 176.436 127.69 176.76 127.812 177.093C128.053 177.888 127.851 178.743 127.916 179.572C127.681 179.611 127.441 179.595 127.213 179.526C126.985 179.458 126.776 179.338 126.602 179.177C126.478 179.048 126.377 178.897 126.257 178.762C125.92 178.442 125.522 178.193 125.086 178.031C124.83 177.888 124.538 177.821 124.245 177.838C123.937 177.924 123.66 178.096 123.447 178.334C123.17 178.577 122.876 178.801 122.567 179.003C122.435 179.104 122.282 179.173 122.119 179.202C122.037 179.215 121.953 179.201 121.879 179.164C121.805 179.126 121.745 179.066 121.707 178.992C121.689 178.945 121.679 178.896 121.676 178.846C121.572 178 121.517 177.149 121.511 176.297C121.511 174.831 119.757 173.823 119.535 172.374C119.359 171.206 119.687 170.015 119.577 168.838C119.524 168.233 119.356 167.639 119.367 167.034C119.367 166.642 119.457 166.258 119.488 165.869C119.513 165.436 119.507 165.003 119.468 164.571L119.381 163.218C119.297 161.882 119.205 160.517 118.678 159.296C118.053 157.869 117.684 156.344 117.585 154.79C117.529 153.81 117.566 152.829 117.454 151.846C117.353 150.957 117.129 150.075 117.193 149.184C117.246 148.495 117.473 147.828 117.527 147.139C117.636 145.813 117.131 144.525 116.736 143.255C116.341 141.986 116.05 140.58 116.568 139.355C116.642 139.154 116.766 138.975 116.927 138.834C117.126 138.703 117.352 138.618 117.588 138.588C122.395 137.578 127.323 137.264 132.219 137.655C133.017 137.7 133.792 137.941 134.475 138.358Z" fill="#F4E5D5"/>
<path d="M118.569 108.6C121.048 108.6 123.057 106.59 123.057 104.112C123.057 101.633 121.048 99.6231 118.569 99.6231C116.09 99.6231 114.08 101.633 114.08 104.112C114.08 106.59 116.09 108.6 118.569 108.6Z" fill="#BE6F72"/>
<path d="M117.7 109.718C117.765 109.975 117.765 110.243 117.7 110.5C117.63 110.679 117.53 110.845 117.406 110.993C116.972 111.553 116.491 112.076 115.969 112.556C116.235 113.15 116.714 113.623 117.311 113.881C117.904 114.134 118.526 114.312 119.163 114.411C119.481 114.495 119.811 114.517 120.138 114.478C120.439 114.403 120.723 114.274 120.978 114.097L123.472 112.604C123.848 112.4 124.197 112.149 124.509 111.856C124.966 111.386 125.225 110.758 125.231 110.102C125.243 109.984 125.211 109.867 125.142 109.771C125.046 109.688 124.926 109.638 124.8 109.628C123.923 109.435 123.231 108.723 122.839 107.916C122.484 107.089 122.255 106.214 122.158 105.319L119.499 106.72C119.104 106.93 118.712 107.14 118.303 107.322C118.042 107.44 117.515 107.538 117.33 107.776C116.977 108.216 117.608 109.188 117.7 109.718Z" fill="#BE6F72"/>
<path d="M115.986 111.741C115.607 112.051 115.311 112.451 115.125 112.904C114.952 113.464 115.125 114.055 115.282 114.61C116.018 116.974 116.58 119.389 116.963 121.836C117.199 123.517 117.286 125.223 117.4 126.924C117.636 130.392 117.978 135.923 118.434 139.369C120.115 139.445 121.754 138.955 123.422 138.775C126.537 138.445 129.745 139.201 132.796 138.495C132.057 135.573 131.317 130.583 130.577 127.663C130.25 126.513 130.023 125.337 129.899 124.147C129.835 123.293 129.874 122.435 129.885 121.575C129.91 119.894 129.818 118.213 129.726 116.532C129.619 114.571 129.513 112.609 129.048 110.69C129.015 110.446 128.9 110.219 128.722 110.049C128.442 109.844 128.078 109.917 127.745 109.962C126.724 110.091 125.691 109.846 124.836 109.272C124.467 109.02 123.971 108.712 123.626 108.992C123.479 109.161 123.382 109.368 123.346 109.589C123.193 109.985 122.958 110.345 122.656 110.643C122.353 110.941 121.99 111.171 121.592 111.318C120.794 111.607 119.957 111.779 119.11 111.828C118.85 111.883 118.58 111.853 118.339 111.741C117.941 111.497 117.913 110.62 117.412 110.561C116.972 110.511 116.283 111.458 115.986 111.741Z" fill="#F4E5D5"/>
<path d="M122.615 118.583C121.581 117.594 121.127 116.159 120.373 114.94C119.86 114.121 119.204 113.4 118.437 112.811C118.051 112.556 117.698 112.256 117.384 111.917C117.117 111.59 116.916 111.152 116.512 111.026C116.346 110.99 116.173 110.995 116.008 111.04C115.844 111.086 115.693 111.17 115.568 111.287C115.321 111.522 115.087 111.771 114.868 112.032C113.68 113.262 111.592 113.433 110.651 114.856C110.397 115.158 110.224 115.52 110.149 115.907C109.878 117.979 110.414 120.075 111.646 121.763C111.884 122.154 112.25 122.451 112.682 122.603C112.624 123.126 112.693 123.655 112.884 124.144C113.403 125.918 114.04 127.654 114.792 129.342C114.612 130.002 114.487 130.676 114.417 131.356C114.22 133.068 114.403 134.805 114.218 136.52C114.066 137.921 113.657 139.285 113.643 140.689C113.643 140.913 113.663 141.179 113.856 141.294C113.959 141.347 114.074 141.371 114.19 141.364L117.636 141.468C119.636 141.527 121.656 141.585 123.626 141.216C123.888 141.177 124.143 141.096 124.38 140.977C125.047 140.605 125.268 139.764 125.374 139.016C125.513 138.046 125.569 137.065 125.54 136.086C125.957 137.405 126.453 138.77 127.714 139.341C128.381 139.644 129.143 139.621 129.874 139.602C131.45 139.532 133.021 139.37 134.578 139.117C134.674 139.129 134.772 139.118 134.863 139.086C134.954 139.053 135.036 139 135.103 138.93C135.169 138.86 135.219 138.775 135.247 138.683C135.275 138.59 135.281 138.492 135.265 138.397L135.281 136.867C135.315 133.76 134.545 130.79 134.245 127.697C134.15 126.722 134.158 125.736 133.92 124.78C133.822 124.38 133.679 123.987 133.592 123.584C133.517 123.189 133.47 122.789 133.452 122.388L133.233 119.306C133.13 117.88 132.981 116.504 132.872 115.081C132.812 113.695 132.611 112.318 132.272 110.973C132.029 110.133 131.521 109.18 130.644 109.076C130.177 109.023 129.723 109.228 129.277 109.371C128.182 109.715 127.007 109.71 125.915 109.357C125.578 109.223 125.226 109.129 124.867 109.076C124.687 109.052 124.503 109.076 124.334 109.146C124.166 109.215 124.019 109.329 123.909 109.474C123.8 109.693 123.749 109.936 123.761 110.18C123.629 112.979 123.385 115.862 122.615 118.583Z" fill="#36485E"/>
<path d="M118.107 118.667C116.815 117.305 115.49 115.918 113.825 115.053C113.17 114.711 112.424 114.453 111.699 114.582C110.973 114.711 110.298 115.341 110.332 116.078C110.354 116.535 110.631 116.938 110.718 117.386C110.819 117.891 110.673 118.429 110.83 118.916C110.958 119.237 111.148 119.53 111.391 119.776L113.374 122.127C114.215 123.108 115.055 124.102 116.137 124.78C117.218 125.458 118.619 125.775 119.807 125.293C120.652 124.9 121.355 124.255 121.819 123.447C122.312 122.662 122.659 121.805 123.122 120.995C123.841 119.701 124.791 118.55 125.923 117.597C125.341 117.445 124.609 117.232 124.242 116.756C124.138 116.605 124.049 116.443 123.976 116.274L123.522 115.294C123.368 115.285 123.214 115.309 123.069 115.364C122.924 115.418 122.793 115.502 122.682 115.61C122.487 115.835 122.279 116.048 122.057 116.246C121.662 116.543 121.127 116.624 120.768 116.963C120.629 117.109 120.504 117.266 120.393 117.434C120.122 117.791 119.777 118.085 119.383 118.298C118.989 118.51 118.553 118.636 118.107 118.667Z" fill="#F4E5D5"/>
<path d="M126.027 112.808C126.999 111.035 126.955 108.908 127.232 106.905C127.262 106.374 127.448 105.865 127.767 105.44C128.327 104.806 129.316 104.798 130.163 104.879C130.412 104.907 130.723 105.025 130.709 105.274C130.689 105.364 130.646 105.446 130.583 105.512C129.763 106.571 129.28 107.852 129.199 109.188C129.639 109.494 130.319 108.866 130.743 109.188C131.023 109.424 130.894 109.889 130.726 110.225C130.335 111.004 129.933 111.777 129.518 112.545C129.187 113.222 128.755 113.844 128.238 114.391C127.882 114.733 127.464 115.002 127.103 115.338C126.262 116.126 125.755 117.238 124.887 118.006C124.813 118.085 124.714 118.136 124.607 118.149C124.496 118.141 124.392 118.094 124.312 118.017C123.879 117.664 123.519 117.229 123.253 116.736C122.923 116.126 122.973 115.946 123.494 115.515C124.469 114.744 125.419 113.918 126.027 112.808Z" fill="#BE6F72"/>
<path d="M116.481 117.462C116.65 117.566 116.857 117.683 117.042 117.597C117.117 117.551 117.182 117.489 117.23 117.414C117.55 116.987 117.817 116.522 118.025 116.03C118.061 115.961 118.081 115.884 118.084 115.806C118.084 115.627 117.924 115.495 117.776 115.392C116.98 114.884 116.125 114.478 115.229 114.181C114.489 113.901 113.716 113.657 112.932 113.727C112.637 113.747 112.349 113.826 112.086 113.96C111.822 114.094 111.589 114.28 111.399 114.506C110.839 115.226 111.777 115.445 112.366 115.705C113.727 116.325 115.201 116.683 116.481 117.462Z" fill="#36485E"/>
<path opacity="0.1" d="M115.599 122.225C115.589 122.289 115.595 122.354 115.616 122.416C115.636 122.477 115.671 122.533 115.717 122.578C115.798 122.18 115.691 121.76 115.775 121.359C115.899 120.757 116.484 120.303 116.535 119.698C115.462 119.488 115.607 121.575 115.599 122.225Z" fill="black"/>
<path opacity="0.2" d="M165 100.315V103.075L153.608 103.767L153.263 101.004L165 100.315Z" fill="black"/>
<path d="M114.529 104.778C115.24 104.198 114.828 102.982 115.31 102.204C115.59 101.778 116.064 101.554 116.529 101.363C117.09 101.1 117.692 100.934 118.308 100.87C118.617 100.84 118.928 100.881 119.219 100.988C119.51 101.095 119.774 101.266 119.989 101.489C120.171 101.696 120.295 101.949 120.466 102.164C120.677 102.416 120.953 102.606 121.264 102.713C121.575 102.821 121.909 102.842 122.231 102.775C122.603 102.691 122.99 102.408 122.965 102.027C122.923 101.795 122.804 101.584 122.629 101.427L121.827 100.539C120.917 99.5307 119.905 98.4604 118.569 98.2082C117.639 98.0317 116.686 98.2811 115.789 98.5809C115.428 98.7013 115.022 98.8806 114.921 99.2477C114.854 99.4998 114.954 99.7744 114.896 100.029C114.781 100.537 114.131 100.707 113.828 101.133C113.526 101.559 113.618 102.063 113.531 102.534C113.444 103.005 113.192 103.464 113.161 103.952C113.142 104.246 113.29 104.792 113.621 104.899C113.951 105.005 114.324 104.428 114.529 104.778Z" fill="#3F3D56"/>
<path d="M122.693 101.624C122.457 100.391 121.947 99.2267 121.202 98.2166C120.54 97.2728 119.619 96.5411 118.549 96.1097C118.015 95.9008 117.44 95.8157 116.868 95.8609C116.296 95.906 115.741 96.0801 115.246 96.3702C114.511 96.895 113.939 97.6165 113.596 98.452C112.87 100.015 112.601 101.926 113.444 103.428C113.781 103.019 114.358 103.204 114.868 103.055C115.506 102.873 116.047 102.447 116.655 102.181C118.49 101.371 120.732 102.027 122.693 101.624Z" fill="#FED253"/>
<path opacity="0.1" d="M113.873 101.537C113.809 101.032 113.767 100.447 114.125 100.088C114.143 100.066 114.166 100.049 114.191 100.037C114.217 100.025 114.245 100.02 114.274 100.021C114.299 100.029 114.322 100.042 114.341 100.06C114.361 100.077 114.377 100.098 114.389 100.122C114.596 100.449 114.772 100.794 114.915 101.153C114.706 101.105 114.488 101.12 114.288 101.198C114.088 101.275 113.916 101.411 113.795 101.587" fill="black"/>
<path opacity="0.1" d="M120.421 100.113L120.32 99.1132C120.304 99.0308 120.31 98.9455 120.34 98.8666C120.382 98.8007 120.447 98.7527 120.523 98.732C120.598 98.7113 120.679 98.7193 120.749 98.7546C120.886 98.831 121 98.9445 121.076 99.0824C121.31 99.4404 121.503 99.8228 121.654 100.223C121.202 100.136 120.738 100.141 120.289 100.24" fill="black"/>
<path opacity="0.1" d="M122.928 140.708V142.995L120.998 143.124H110.844V140.708H122.928Z" fill="black"/>
<path d="M122.928 140.709V143.124H110.844L78.7414 102.91V101.01H85.4713L122.928 140.709Z" fill="#36485E"/>
<path opacity="0.1" d="M122.928 140.709V143.124H110.844L78.7414 102.91V101.01H85.4713L122.928 140.709Z" fill="black"/>
<path opacity="0.1" d="M122.928 140.709V143.124H110.844L78.7414 102.91V101.01L111.018 140.709H122.928Z" fill="black"/>
<path d="M82.9497 181.015C82.9708 181.129 82.9683 181.245 82.9422 181.358C82.9162 181.471 82.8671 181.577 82.7982 181.67C82.7294 181.762 82.6421 181.84 82.5418 181.898C82.4416 181.955 82.3305 181.991 82.2156 182.004C81.4367 182.267 80.6102 182.528 80.0582 183.125C79.5063 183.722 79.397 184.828 80.0582 185.313C80.3962 185.517 80.7843 185.623 81.179 185.618C82.4482 185.705 83.7706 185.688 84.9222 185.15C85.7459 184.769 86.522 184.119 87.4269 184.178C87.8948 184.206 88.3936 184.425 88.811 184.212C89.2285 183.999 89.3462 183.405 89.349 182.909C89.3596 181.874 89.2035 180.844 88.8867 179.858C88.8447 179.723 87.0627 179.62 86.8498 179.578L84.6896 179.298C84.2805 179.244 83.398 178.936 83.0758 179.278C82.7536 179.62 82.9497 180.609 82.9497 181.015Z" fill="#36485E"/>
<path d="M95.8407 174.022C95.9322 174.526 96.0807 175.019 96.2834 175.49C96.5832 176.252 96.967 177.062 97.7011 177.432C98.3679 177.765 99.1861 177.644 99.8641 177.328C100.147 177.211 100.395 177.022 100.584 176.782C100.803 176.4 100.901 175.962 100.864 175.524C100.864 174.439 100.8 173.319 100.304 172.355C99.8781 171.514 99.1356 170.791 99.1244 169.861L96.572 170.354C96.4353 170.367 96.3052 170.419 96.1965 170.503C96.1157 170.588 96.0595 170.693 96.034 170.808C95.7615 171.857 95.6959 172.948 95.8407 174.022Z" fill="#36485E"/>
<path d="M65.3601 147.405C65.2536 148.307 65.2984 149.274 65.7691 150.052C66.2398 150.831 67.2317 151.347 68.089 151.036C68.1329 151.025 68.1742 151.005 68.2103 150.977C68.2464 150.95 68.2766 150.915 68.2992 150.876C68.322 150.781 68.309 150.682 68.2627 150.596C67.8842 149.586 67.9154 148.468 68.3496 147.48C68.4056 147.352 68.5261 147.2 68.6578 147.251C68.7129 147.279 68.7572 147.324 68.7839 147.38C68.9195 147.614 68.9874 147.882 68.98 148.153C68.9404 148.398 68.9329 148.648 68.9576 148.895C69.0108 149.136 69.2686 149.363 69.4927 149.26C69.5575 149.22 69.6135 149.167 69.6574 149.105C69.7012 149.043 69.7319 148.973 69.7477 148.898C70.3725 147.091 70.0895 145.116 69.8037 143.224C69.8061 143.181 69.7989 143.138 69.7827 143.097C69.7664 143.057 69.7415 143.021 69.7097 142.991C69.6779 142.961 69.64 142.939 69.5986 142.926C69.5573 142.912 69.5135 142.908 69.4703 142.914C68.1479 142.782 67.425 142.465 66.6685 143.695C66.0185 144.732 65.3601 146.158 65.3601 147.405Z" fill="#36485E"/>
<path d="M80.8203 142.807C80.4281 144.438 80.033 146.088 80.0078 147.763C80.0147 148.807 80.0933 149.849 80.2432 150.882L80.5374 153.308C80.6382 154.126 80.7363 154.942 80.8792 155.751C80.9703 156.168 81.0201 156.594 81.0277 157.021C81.0002 157.441 80.9336 157.859 80.8287 158.267C80.6525 159.125 80.5541 159.997 80.5345 160.873C80.5037 162.274 80.6774 163.675 80.7867 165.076C81.0049 167.867 80.972 170.673 80.6886 173.459C80.5755 174.211 80.7388 174.978 81.1481 175.619C81.3143 175.821 81.451 176.045 81.5544 176.286C81.7645 176.927 81.2742 177.569 81.1481 178.227C81.0675 178.741 81.1939 179.265 81.4997 179.685C81.8054 180.106 82.2655 180.387 82.7788 180.469C85.0202 180.735 87.3233 180.614 89.3434 181.64C89.5563 181.018 89.0912 180.312 89.3041 179.679C89.4386 179.286 89.8085 179.031 90.0606 178.701C90.3994 178.197 90.5682 177.598 90.5425 176.992C90.5524 176.2 90.4117 175.414 90.1279 174.675C89.8897 174.058 89.5479 173.45 89.5675 172.789C89.5675 172.464 89.6824 172.122 89.5507 171.822C89.4604 171.65 89.3377 171.497 89.1893 171.371C88.3519 170.454 87.8373 169.288 87.7239 168.051C87.6147 166.824 87.6542 165.588 87.8416 164.37C87.9789 163.21 88.1638 161.985 88.9007 161.08C88.559 158.336 88.7598 155.552 89.4919 152.885C89.5647 152.639 89.6796 152.353 89.9317 152.294C90.0319 152.284 90.1331 152.298 90.2267 152.335C90.3203 152.372 90.4037 152.431 90.4697 152.507C90.9096 152.919 91.1197 153.515 91.3102 154.087C91.5204 154.706 91.7333 155.367 91.5736 156.001C91.5063 156.281 91.3719 156.527 91.2934 156.796C91.123 157.337 91.1528 157.921 91.3775 158.441C91.487 158.631 91.5557 158.842 91.5792 159.06C91.5532 159.248 91.4964 159.429 91.4111 159.598C91.3072 159.93 91.2742 160.279 91.3142 160.625C91.3543 160.97 91.4665 161.303 91.6436 161.601C92.0007 162.196 92.4414 162.737 92.9521 163.207C92.7081 164.282 92.7712 165.405 93.1342 166.446C93.1604 166.493 93.1771 166.544 93.1833 166.598C93.1896 166.651 93.1853 166.705 93.1706 166.757C93.1202 166.863 92.9913 166.902 92.8904 166.978C92.6103 167.208 92.784 167.642 92.9717 167.942C93.4862 168.765 94.0543 169.553 94.6724 170.301C95.2327 170.971 95.1823 172.262 96.0172 172.503C96.3681 172.579 96.7311 172.579 97.0819 172.503C97.9056 172.377 98.8246 172.139 99.2281 171.41C99.3934 171.111 99.4606 170.746 99.7184 170.522C99.9761 170.298 100.31 170.259 100.452 169.99C100.595 169.721 100.436 169.368 100.483 169.057C100.531 168.746 100.803 168.497 100.89 168.169C101.097 167.412 100.214 166.79 100.094 166.017C99.9201 164.896 101.332 164.056 101.273 162.935C101.15 160.5 101.072 158.054 100.946 155.62C100.787 153.439 100.765 151.25 100.878 149.066C100.976 147.707 101.158 146.284 100.66 145.02C99.9425 143.239 97.9645 142.238 96.0508 142.048C94.1372 141.857 92.2292 142.311 90.3324 142.608C87.1843 143.093 83.9859 143.16 80.8203 142.807Z" fill="#F4E5D5"/>
<path d="M86.508 116.028C88.9869 116.028 90.9964 114.018 90.9964 111.539C90.9964 109.06 88.9869 107.051 86.508 107.051C84.0291 107.051 82.0195 109.06 82.0195 111.539C82.0195 114.018 84.0291 116.028 86.508 116.028Z" fill="#FBBEBE"/>
<path d="M84.6812 116.865C84.5287 117.22 84.2723 117.521 83.9458 117.727C83.6192 117.934 83.2377 118.037 82.8516 118.022C82.6891 118.695 83.0786 119.373 83.524 119.902C84.4491 120.979 85.6445 121.789 86.9871 122.25C88.3296 122.71 89.7707 122.804 91.1617 122.522C91.703 122.425 92.2165 122.211 92.6663 121.895C93.2725 121.388 93.6796 120.683 93.815 119.905C93.944 119.132 93.9806 118.347 93.9243 117.566C93.94 117.411 93.8959 117.257 93.801 117.134C93.689 117.047 93.5504 117.002 93.4087 117.005C92.4617 116.921 91.4727 116.885 90.6406 116.42C89.8085 115.955 89.2173 114.904 89.6179 114.041C89.5535 114.176 87.9172 114.24 87.7015 114.268C87.0263 114.363 86.351 114.47 85.6786 114.593C85.3555 114.611 85.0361 114.671 84.7288 114.772C84.3226 114.983 84.4738 114.879 84.5691 115.26C84.712 115.843 84.9221 116.26 84.6812 116.865Z" fill="#FBBEBE"/>
<path d="M88.0966 119.594C87.4921 119.601 86.889 119.534 86.3006 119.395C85.7066 119.257 85.183 118.907 84.8269 118.412C84.6196 118.098 84.4851 117.703 84.1545 117.527C83.6137 117.246 82.9973 117.72 82.5658 118.154C82.173 118.582 81.7177 118.949 81.2154 119.241C80.6158 119.558 79.9153 119.67 79.3494 120.043C78.9072 120.377 78.5278 120.786 78.2287 121.253L74.2585 126.66C72.6643 128.835 71.2774 131.168 69.8569 133.463C68.627 135.45 67.9825 137.736 67.0552 139.879C66.9817 140.01 66.9513 140.161 66.9683 140.311C67.0019 140.456 67.1784 140.574 67.3017 140.49C66.8842 140.905 67.2513 141.611 67.1532 142.193C67.0417 142.601 66.8092 142.966 66.4864 143.239C67.1031 143.158 67.7291 143.188 68.3356 143.325C68.9623 143.503 69.5537 143.787 70.0839 144.166C70.4229 144.113 70.3921 143.51 70.6442 143.286C70.7955 143.154 71.0197 143.171 71.2186 143.132C71.9667 142.986 72.2637 142.087 72.838 141.58C73.3171 141.157 73.9952 141.02 74.5023 140.622C75.326 139.974 75.5025 138.823 75.934 137.868C76.301 137.058 76.8782 136.352 77.2004 135.522C77.4106 134.984 77.5114 134.402 77.8112 133.906C78.2903 133.104 79.1925 132.679 80.0526 132.295C80.5962 132.051 81.1734 131.799 81.7589 131.838C81.7281 133.141 81.5628 134.424 81.8458 135.696C81.9438 136.144 82.0811 136.582 82.1988 137.027C82.734 139.033 82.86 141.123 82.8853 143.191C84.1725 142.896 85.4873 142.739 86.8078 142.72C87.8472 142.689 88.8839 142.824 89.9233 142.804C91.1561 142.782 92.3749 142.544 93.6077 142.46C94.8405 142.376 96.1293 142.46 97.2192 143.02C97.1307 141.244 97.1803 139.465 97.3677 137.697L97.6647 134.912C97.7317 134.103 97.8562 133.299 98.0373 132.508C98.1998 131.869 98.4352 131.253 98.6145 130.617C99.2449 128.375 99.13 125.982 99.0095 123.648C98.9479 122.449 98.4856 121.27 97.942 120.202C97.7453 119.806 97.5206 119.424 97.2696 119.059C96.6128 118.154 95.7375 117.43 94.7253 116.955C93.7131 116.48 92.597 116.269 91.4811 116.341C91.3386 116.346 91.1981 116.376 91.0665 116.431C90.83 116.582 90.6453 116.802 90.5369 117.061C89.9572 118.103 89.1162 118.976 88.0966 119.594Z" fill="#F4E5D5"/>
<path d="M82.5602 113.027C82.6863 112.747 83.0253 112.643 83.2327 112.419C83.6305 111.993 83.4512 111.312 83.5128 110.738C83.6137 109.897 84.3113 109.194 85.1099 108.894C85.9242 108.633 86.7907 108.578 87.6315 108.735C88.0362 108.764 88.4272 108.894 88.769 109.113C88.9147 109.219 89.0492 109.357 89.1865 109.455C89.4367 109.606 89.7362 109.653 90.021 109.587C90.3057 109.52 90.5532 109.345 90.7106 109.099C89.7188 107.905 88.6205 106.644 87.1131 106.277C86.596 106.172 86.0691 106.122 85.5413 106.129C84.8437 106.115 84.1236 106.104 83.4792 106.37C82.6023 106.731 81.9859 107.563 81.6693 108.46C81.3924 109.369 81.2443 110.312 81.2294 111.262C81.172 111.896 81.172 112.533 81.2294 113.167C81.3377 114.032 81.6593 114.858 82.1652 115.568C82.2336 115.678 82.3303 115.768 82.4454 115.829C83.723 116.389 82.4566 113.259 82.5602 113.027Z" fill="#3F3D56"/>
<path d="M90.5649 108.407C90.4108 107.087 89.4694 105.997 88.4692 105.12C87.663 104.36 86.7027 103.782 85.6534 103.425C84.5971 103.114 83.3812 103.181 82.4762 103.812C81.7477 104.319 81.2854 105.126 80.9296 105.938C80.4622 106.897 80.2307 107.954 80.2544 109.02C80.3244 110.079 80.8399 111.152 81.7589 111.688C82.0895 111.2 82.6639 110.948 83.2159 110.749C85.6215 109.836 88.0748 109.054 90.5649 108.407Z" fill="#FED253"/>
<path opacity="0.1" d="M82.0671 107.858C82.1568 107.858 82.2156 107.95 82.2605 108.026C82.4886 108.381 82.6846 108.756 82.846 109.146C82.5182 109.216 81.9551 109.295 81.7926 109.006C81.7057 108.861 81.8094 107.844 82.0671 107.858Z" fill="black"/>
<path opacity="0.1" d="M88.4524 107.224C88.3851 107.289 88.3067 107.157 88.3067 107.062V105.975C88.3049 105.945 88.3117 105.914 88.3263 105.888C88.3379 105.875 88.3521 105.864 88.368 105.856C88.3839 105.848 88.4011 105.844 88.4188 105.843C88.6457 105.818 88.8334 106.011 88.9791 106.196C89.2002 106.496 89.3925 106.816 89.5535 107.152L88.3683 107.115" fill="black"/>
<path d="M103.243 125.226C103.501 124.981 103.776 124.755 104.067 124.551C104.843 124.032 105.781 123.828 106.653 123.497C107.524 123.167 108.41 122.631 108.749 121.763C108.918 121.22 108.974 120.647 108.911 120.082C108.919 119.845 108.877 119.609 108.788 119.39C108.681 119.196 108.529 119.031 108.345 118.908C107.163 118.034 105.577 117.964 104.109 118.053C100.872 118.254 97.6994 119.046 94.748 120.39C94.5919 120.442 94.4551 120.539 94.3557 120.67C94.2983 120.792 94.2723 120.926 94.2801 121.06C94.2279 121.886 94.3354 122.714 94.5967 123.5C94.9833 124.497 95.7791 125.302 96.1125 126.319C96.2638 126.775 96.3142 127.26 96.4459 127.719C96.5539 128.194 96.8345 128.611 97.2332 128.891C98.3399 129.552 99.3849 128.664 100.153 127.974L103.243 125.226Z" fill="#3F3D56"/>
<path d="M88.7494 129.106L87.3289 126.008C87.1206 125.578 86.9409 125.135 86.7909 124.682C86.6284 124.142 86.55 123.581 86.3987 123.038C85.9 121.228 84.642 119.72 84.0284 117.947C83.9896 117.787 83.9105 117.639 83.7986 117.518C83.7091 117.455 83.6067 117.412 83.4987 117.393C83.3907 117.373 83.2798 117.378 83.1738 117.406C82.3165 117.555 81.6469 118.207 80.8624 118.577C80.4981 118.745 80.1059 118.857 79.7417 119.051C79.5596 119.137 79.3983 119.261 79.2687 119.416C79.1391 119.57 79.0443 119.75 78.9908 119.944C78.9039 120.373 79.1169 120.785 79.2962 121.202C80.0583 122.923 80.232 124.845 80.2656 126.728C80.2908 127.994 80.2264 129.353 79.4783 130.37C78.041 132.331 78.96 135.211 79.4979 137.585C79.5623 137.865 79.638 138.167 79.6828 138.464C79.7302 138.836 79.7518 139.21 79.7473 139.585C79.7473 140.843 79.6772 142.14 79.1505 143.281C79.6705 143.557 80.2437 143.72 80.8316 143.757C82.4585 143.964 84.0919 144.11 85.7319 144.194C86.2457 144.242 86.7638 144.216 87.2701 144.115C87.8713 143.953 88.4012 143.595 88.7761 143.098C89.1511 142.6 89.3497 141.992 89.3406 141.37C89.4302 142.146 89.5955 142.989 90.1587 143.527C90.7219 144.065 91.5428 144.146 92.3077 144.188C94.4664 144.303 96.6309 144.242 98.7798 144.006C98.917 144 99.0518 143.969 99.1777 143.914C99.5923 143.706 99.6147 143.135 99.5811 142.675C99.5195 141.815 99.455 140.955 99.3514 140.101C99.2635 139.556 99.2185 139.005 99.2169 138.453C99.2596 137.885 99.3534 137.323 99.4971 136.772C99.8725 135.024 100.169 133.239 100.043 131.449C99.9936 131.012 99.9758 130.573 99.9902 130.135C100.063 129.146 100.584 128.204 100.486 127.221C100.206 124.329 99.979 121.362 99.172 118.572C99.0264 118.073 98.8414 117.538 98.4072 117.252C97.8468 116.877 97.0595 117.073 96.4179 116.834C96.1168 116.694 95.8306 116.524 95.5633 116.327C94.9828 115.964 94.3172 115.759 93.6329 115.733C93.1174 115.714 92.543 115.829 92.232 116.243C92.088 116.477 91.9927 116.737 91.9518 117.008C91.5456 118.717 91.0693 120.407 90.593 122.096L90.1363 123.716L88.9119 128.064C88.7914 128.526 88.8727 128.669 88.7494 129.106Z" fill="#36485E"/>
<path d="M95.9136 112.142L123.015 140.622V143.037H110.931L90.5649 116.456" fill="#36485E"/>
<path opacity="0.1" d="M95.9136 112.142L123.015 140.622V143.037H110.931L90.5649 116.456" fill="black"/>
<path opacity="0.1" d="M90.9964 116.081L91.0833 116.112L111.105 140.622H123.015V143.037H110.931L90.5649 116.456L90.9964 116.081Z" fill="black"/>
<path d="M94.1148 116.68C93.1342 117.109 92.0443 117.658 91.7501 118.689C91.692 118.87 91.6795 119.063 91.7137 119.25C91.7854 119.469 91.922 119.662 92.1056 119.803C92.2892 119.944 92.5111 120.025 92.742 120.037C93.2033 120.048 93.6621 119.964 94.0896 119.79L99.8753 117.88C100.032 117.829 100.212 117.753 100.251 117.599C100.261 117.502 100.241 117.405 100.195 117.319C100.015 116.882 99.8389 115.988 99.4634 115.683C99.1552 115.436 98.5445 115.523 98.1718 115.529C96.7373 115.54 95.3896 116.12 94.1148 116.68Z" fill="#36485E"/>
<path d="M99.2729 118.107C100.248 118.104 101.217 118.254 102.145 118.552C103.077 118.855 103.903 119.419 104.523 120.177C104.704 120.389 104.833 120.64 104.899 120.911C104.955 121.191 105.868 121.359 105.667 121.55C106.28 121.452 106.134 121.74 106.756 121.735C107.378 121.729 108.051 121.57 108.424 121.074C108.682 120.666 108.798 120.184 108.751 119.704C108.76 119.371 108.696 119.04 108.566 118.734C108.286 118.146 107.642 117.829 107.048 117.557L102.044 115.268C101.754 115.114 101.442 115.003 101.119 114.94C100.848 114.915 100.574 114.921 100.304 114.96L98.0373 115.221C98.533 115.541 98.9366 115.986 99.2083 116.51C99.48 117.034 99.6104 117.62 99.5867 118.21" fill="#F4E5D5"/>
</g>
</g>
<defs>
<clipPath id="clip0_1_2">
<rect width="330" height="203" fill="white"/>
</clipPath>
</defs>
</svg>
